PathFileType	4	(X/Y/Z)	RBDS024static.trc
DataRate	CameraRate	NumFrames	NumMarkers	Units	OrigDataRate	OrigDataStartFrame	OrigNumFrames
150.000000	150.000000	4	48	mm	150.000000	18	150
Frame#	Time	L.Ankle			L.Ankle.Medial			L.ASIS			L.GTR			L.Heel.Bottom			L.Heel.Lateral			L.Heel.Top			L.HF			L.Iliac.Crest			L.Knee			L.Knee.Medial			L.MT1			L.MT2			L.MT5			L.PSIS			L.Shank.Bottom.Lateral			L.Shank.Bottom.Medial			L.Shank.Top.Lateral			L.Shank.Top.Medial			L.Thigh.Bottom.Lateral			L.Thigh.Bottom.Medial			L.Thigh.Top.Lateral			L.Thigh.Top.Medial			L.TT			R.Ankle			R.Ankle.Medial			R.ASIS			R.GTR			R.Heel.Bottom			R.Heel.Lateral			R.Heel.Top			R.HF			R.Iliac.Crest			R.Knee			R.Knee.Medial			R.MT1			R.MT2			R.MT5			R.PSIS			R.Shank.Bottom.Lateral			R.Shank.Bottom.Medial			R.Shank.Top.Lateral			R.Shank.Top.Medial			R.Thigh.Bottom.Lateral			R.Thigh.Bottom.Medial			R.Thigh.Top.Lateral			R.Thigh.Top.Medial			R.TT			
		X1	Y1	Z1	X2	Y2	Z2	X3	Y3	Z3	X4	Y4	Z4	X5	Y5	Z5	X6	Y6	Z6	X7	Y7	Z7	X8	Y8	Z8	X9	Y9	Z9	X10	Y10	Z10	X11	Y11	Z11	X12	Y12	Z12	X13	Y13	Z13	X14	Y14	Z14	X15	Y15	Z15	X16	Y16	Z16	X17	Y17	Z17	X18	Y18	Z18	X19	Y19	Z19	X20	Y20	Z20	X21	Y21	Z21	X22	Y22	Z22	X23	Y23	Z23	X24	Y24	Z24	X25	Y25	Z25	X26	Y26	Z26	X27	Y27	Z27	X28	Y28	Z28	X29	Y29	Z29	X30	Y30	Z30	X31	Y31	Z31	X32	Y32	Z32	X33	Y33	Z33	X34	Y34	Z34	X35	Y35	Z35	X36	Y36	Z36	X37	Y37	Z37	X38	Y38	Z38	X39	Y39	Z39	X40	Y40	Z40	X41	Y41	Z41	X42	Y42	Z42	X43	Y43	Z43	X44	Y44	Z44	X45	Y45	Z45	X46	Y46	Z46	X47	Y47	Z47	X48	Y48	Z48	

19	0.12	718.4288940429688	108.3551177978516	1047.090942382813	736.37841796875	115.3436737060547	1133.77197265625	908.1268920898438	1014.356201171875	1097.455688476563	814.3114013671875	922.3038940429688	1031.570556640625	645.6824951171875	41.16011810302734	1090.191162109375	667.9577026367188	61.49648666381836	1047.867065429688	654.73291015625	85.39759063720703	1091.623657226563	774.0671997070313	468.2713012695313	1036.493041992188	814.3927612304688	1083.323852539063	1044.421752929688	786.4928588867188	529.9572143554688	1040.969970703125	768.4783935546875	517.9224853515625	1166.46728515625	869.6009521484375	54.62493515014648	1128.16259765625	876.0304565429688	66.13272094726563	1089.162719726563	834.5922241210938	49.09885025024414	1013.255554199219	723.07568359375	1055.5126953125	1160.129028320313	728.4232788085938	183.1290740966797	1039.279296875	683.4503784179688	188.0484008789063	1063.752685546875	731.15771484375	262.0545959472656	1021.0556640625	685.4922485351563	271.3240661621094	1047.453735351563	781.7967529296875	654.3441772460938	1022.678833007813	720.9920654296875	656.2510986328125	1060.743286132813	779.8482055664063	764.7794799804688	1020.693603515625	725.2505493164063	766.8173828125	1062.0537109375	824.0078125	450.2526245117188	1090.727783203125	705.6514892578125	109.5222625732422	1410.817138671875	726.8353881835938	115.4310760498047	1322.343872070313	896.9945068359375	1011.360107421875	1336.87158203125	807.3414306640625	923.9261474609375	1396.15234375	635.5712280273438	43.7435302734375	1366.387084960938	666.7863159179688	63.17644882202148	1411.34765625	644.0615844726563	87.45816802978516	1365.949340820313	776.6420288085938	475.4610290527344	1408.906982421875	823.4642944335938	1081.563110351563	1384.754516601563	795.2509765625	537.0648193359375	1400.513549804688	777.5422973632813	515.0101318359375	1275.536987304688	852.8504028320313	56.79407501220703	1323.870361328125	860.9827880859375	73.49089813232422	1369.090087890625	827.9566040039063	51.71931076049805	1440.749877929688	723.6735229492188	1052.1630859375	1263.477416992188	705.54345703125	191.7703247070313	1417.5947265625	667.9216918945313	199.6175079345703	1376.8349609375	707.5631103515625	272.4764099121094	1428.999633789063	671.9688720703125	279.7601623535156	1389.203002929688	772.7352294921875	656.2022094726563	1413.033447265625	716.1019897460938	657.4841918945313	1366.060913085938	771.974365234375	765.9794311523438	1412.217041015625	719.0006103515625	766.8657836914063	1367.467041015625	827.6057739257813	449.5586242675781	1359.02490234375	
20	0.1266666666666667	718.4271850585938	108.3429260253906	1047.0927734375	736.3796997070313	115.3413238525391	1133.772583007813	908.0938720703125	1014.361938476563	1097.458984375	814.2675170898438	922.3250732421875	1031.567993164063	645.6710815429688	41.17009353637695	1090.174072265625	667.957275390625	61.48997116088867	1047.865112304688	654.7239379882813	85.39926910400391	1091.610229492188	774.0479736328125	468.2723693847656	1036.489990234375	814.3502197265625	1083.3359375	1044.42138671875	786.475341796875	529.95263671875	1040.964965820313	768.465576171875	517.9302978515625	1166.4755859375	869.6030883789063	54.61992263793945	1128.153686523438	876.0238037109375	66.11306762695313	1089.148071289063	834.5897827148438	49.08320617675781	1013.263549804688	723.0396118164063	1055.51611328125	1160.135498046875	728.423095703125	183.1244201660156	1039.271484375	683.4574584960938	188.0294189453125	1063.75439453125	731.1396484375	262.0511169433594	1021.043395996094	685.4829711914063	271.32080078125	1047.448852539063	781.779541015625	654.359619140625	1022.676330566406	720.9651489257813	656.2483520507813	1060.750854492188	779.81640625	764.788818359375	1020.699340820313	725.2138061523438	766.8258056640625	1062.057006835938	823.9935913085938	450.2404479980469	1090.716186523438	705.6314086914063	109.5255813598633	1410.829345703125	726.8275756835938	115.3103942871094	1322.449829101563	896.9664306640625	1011.359191894531	1336.866333007813	807.3070068359375	923.9306030273438	1396.161376953125	635.5694580078125	43.73452377319336	1366.385375976563	666.782470703125	63.1668701171875	1411.351196289063	644.0631713867188	87.44245147705078	1365.943237304688	776.6195678710938	475.4754943847656	1408.920043945313	823.436279296875	1081.56005859375	1384.761352539063	795.2257690429688	537.0676879882813	1400.513549804688	777.5136108398438	515.0237426757813	1275.526000976563	852.8401489257813	56.78358840942383	1323.855224609375	860.9869995117188	73.47012329101563	1369.07958984375	827.9586181640625	51.70612335205078	1440.733032226563	723.6450805664063	1052.164306640625	1263.4736328125	705.5416870117188	191.7683715820313	1417.59326171875	667.9186401367188	199.610595703125	1376.846069335938	707.5451049804688	272.4814453125	1429.00830078125	671.9628295898438	279.7549743652344	1389.201416015625	772.7127685546875	656.197998046875	1413.031494140625	716.0753173828125	657.4810791015625	1366.05859375	771.9318237304688	765.9817504882813	1412.209228515625	718.9678955078125	766.85888671875	1367.466064453125	827.5913696289063	449.5673828125	1359.021362304688	
21	0.1333333333333333	718.4390258789063	108.3437805175781	1047.072631835938	736.3804321289063	115.3368225097656	1133.7734375	908.0634155273438	1014.374084472656	1097.462524414063	814.2296752929688	922.3349609375	1031.56396484375	645.6681518554688	41.1662712097168	1090.184326171875	667.9660034179688	61.4735221862793	1047.857055664063	654.7230834960938	85.39741516113281	1091.610473632813	774.0371704101563	468.2803649902344	1036.491821289063	814.319580078125	1083.33642578125	1044.420654296875	786.4437255859375	529.9754028320313	1040.959594726563	768.4375	517.9275512695313	1166.48388671875	869.5988159179688	54.59453964233398	1128.1318359375	876.0252685546875	66.10600280761719	1089.153564453125	834.6015625	49.06245803833008	1013.267333984375	723.0156860351563	1055.515991210938	1160.127685546875	728.4212646484375	183.1110382080078	1039.273071289063	683.4517211914063	188.0211181640625	1063.74755859375	731.14306640625	262.0484008789063	1021.039672851563	685.47998046875	271.3138122558594	1047.451416015625	781.7551879882813	654.3551635742188	1022.676391601563	720.94482421875	656.259033203125	1060.75048828125	779.799072265625	764.7950439453125	1020.700622558594	725.190673828125	766.8295288085938	1062.05810546875	823.9830932617188	450.259521484375	1090.720336914063	705.6373901367188	109.5021133422852	1410.827026367188	726.843505859375	115.293327331543	1322.44921875	896.9400634765625	1011.365478515625	1336.869995117188	807.281494140625	923.9181518554688	1396.15576171875	635.572021484375	43.72768020629883	1366.388549804688	666.7838134765625	63.17271041870117	1411.34912109375	644.0665893554688	87.43294525146484	1365.949096679688	776.6034545898438	475.4703063964844	1408.905517578125	823.4053955078125	1081.553100585938	1384.753662109375	795.2011108398438	537.0692749023438	1400.530517578125	777.4672241210938	515.04052734375	1275.524291992188	852.8419799804688	56.78271102905273	1323.855590820313	860.9869995117188	73.46757507324219	1369.089111328125	827.9577026367188	51.69865417480469	1440.737670898438	723.615234375	1052.16455078125	1263.473266601563	705.53369140625	191.76513671875	1417.60302734375	667.9116821289063	199.6127166748047	1376.843872070313	707.5397338867188	272.4740600585938	1428.998168945313	671.9559936523438	279.7520141601563	1389.201171875	772.6825561523438	656.205810546875	1413.032348632813	716.0577392578125	657.4851684570313	1366.049438476563	771.910400390625	765.9852905273438	1412.206787109375	718.9490966796875	766.8616943359375	1367.451049804688	827.5718383789063	449.5824890136719	1359.036010742188	
22	0.14	718.4407958984375	108.3381271362305	1047.088256835938	736.3760986328125	115.3372802734375	1133.771118164063	908.0310668945313	1014.382934570313	1097.468994140625	814.1945190429688	922.337646484375	1031.56884765625	645.6691284179688	41.16255569458008	1090.1826171875	667.9719848632813	61.47721099853516	1047.856079101563	654.7276611328125	85.39345550537109	1091.613037109375	774.021240234375	468.2998657226563	1036.484497070313	814.26953125	1083.334106445313	1044.41748046875	786.42919921875	529.9927368164063	1040.970092773438	768.4224243164063	517.9348754882813	1166.478881835938	869.584716796875	54.58206939697266	1128.139892578125	876.0164184570313	66.10404205322266	1089.140625	834.5919799804688	49.06668853759766	1013.26708984375	722.9698486328125	1055.51611328125	1160.1357421875	728.4215698242188	183.1220703125	1039.2646484375	683.4480590820313	188.0252838134766	1063.7470703125	731.1368408203125	262.048583984375	1021.043701171875	685.4650268554688	271.3153686523438	1047.45263671875	781.7330932617188	654.3574829101563	1022.672119140625	720.9172973632813	656.2513427734375	1060.753295898438	779.769287109375	764.7858276367188	1020.702697753906	725.15771484375	766.8275146484375	1062.052856445313	823.9707641601563	450.28759765625	1090.71337890625	705.6421508789063	109.5023880004883	1410.820556640625	726.81982421875	115.2989730834961	1322.44580078125	896.913330078125	1011.374450683594	1336.88134765625	807.2440795898438	923.9254760742188	1396.159545898438	635.5735473632813	43.72230529785156	1366.377197265625	666.7821655273438	63.16686248779297	1411.354858398438	644.0693359375	87.42648315429688	1365.945190429688	776.5790405273438	475.4792175292969	1408.913818359375	823.3820190429688	1081.554809570313	1384.76123046875	795.1708374023438	537.0750122070313	1400.518310546875	777.4381713867188	515.0516967773438	1275.529418945313	852.8416748046875	56.77748107910156	1323.857177734375	860.9797973632813	73.47023010253906	1369.091674804688	827.9676513671875	51.70122909545898	1440.742797851563	723.5932006835938	1052.15771484375	1263.481079101563	705.52734375	191.7592315673828	1417.598510742188	667.8978881835938	199.6047515869141	1376.836303710938	707.5292358398438	272.4695739746094	1429.000854492188	671.9465942382813	279.7473754882813	1389.206176757813	772.6559448242188	656.1986083984375	1413.028686523438	716.0286254882813	657.4830322265625	1366.053100585938	771.8820190429688	765.979248046875	1412.204956054688	718.9215698242188	766.8612670898438	1367.4501953125	827.56005859375	449.608154296875	1359.061645507813	
